<?xml version="1.0" encoding="utf-8"?>
<!-- Svg Vector Icons : http://www.onlinewebfonts.com/icon -->
<!DOCTYPE svg PUBLIC "-//W3C//DTD SVG 1.1//EN" "http://www.w3.org/Graphics/SVG/1.1/DTD/svg11.dtd">
<svg version="1.1" xmlns="http://www.w3.org/2000/svg" xmlns:xlink="http://www.w3.org/1999/xlink" x="0px" y="0px" viewBox="0 0 1000 1000" enable-background="new 0 0 1000 1000" xml:space="preserve">
<metadata> Svg Vector Icons : http://www.onlinewebfonts.com/icon </metadata>
<g><g><g><polygon points="497.2,534.3 505,545 511.5,556.9 518.1,572.3 524.6,584.8 532.9,598.5 543.1,612.2 555.5,626.5 560.8,625.8 560.3,617 555,604.4 543.1,590.2 533.5,574.1 526.4,560.4 520.5,545 516.9,532.5 506.2,521.8 497.9,511.7 491.9,512.9 492.5,522.4 "/><polygon points="559.7,369 566.2,364.2 566.2,357.6 552,356.5 544.2,365.4 540.1,379.1 536.5,395.7 535.9,430.8 546.6,451.1 553.1,477.8 559.1,493.9 566.2,514.6 579.3,533.1 591.2,548.5 600.1,567.6 617.4,587.2 629.8,594.3 646.5,602.1 664.9,611 681,606.2 692.9,594.3 710.2,581.9 719,572.9 725,554.5 723.2,547.3 717.8,550.9 709.5,564 698.8,573.5 686.9,580.1 677.4,586.6 664.4,593.2 653.6,589 642.3,581.3 625.1,564 611.4,553.3 600.1,536 591.8,518.2 585.9,501.6 585.9,485.5 575.7,470.1 567.4,449 565.6,433.8 559.7,422.5 558.5,402.8 559.7,382.6 "/><polygon points="685.7,427.2 675.6,407.6 663.2,379.7 644.1,358.3 625.1,341 602.5,327.9 574,321.4 539.5,327.4 508.5,338 482.4,351.8 464.6,366.6 452.1,396.9 449.1,422.5 452.1,455.7 457.4,495 462.2,505.7 465.8,516.4 468.1,527.8 470.5,544.4 475.3,561.1 481.8,572.9 493.7,594.9 509.8,623.5 521,640.2 538.3,656.8 550.2,668.1 567.4,685.9 586.4,696 598.9,704.3 613.2,715.1 631.1,722.8 659,723.4 684,720.4 702.4,712.7 713.7,696 716.1,688.9 725.6,677 741.7,661.5 754.1,638.9 763.7,625.8 769,611.5 774.9,596.1 777.9,581.9 780.9,565.8 780.3,553.3 777.4,549.2 771.4,556.9 761.8,581.9 759.5,600.9 754.7,618.8 743.4,633 732.2,649 722,662.7 712.5,678.8 701.8,695.4 680.4,702.5 660.8,704.3 639.9,706.1 625.1,696.6 612,690.6 594.2,680.6 578.1,669.8 568.6,657.4 550.2,644.8 538.9,627 525.2,612.7 515.7,596.1 503.2,573.5 493.1,552.7 484.2,532.5 477.6,492.7 475.8,472.4 472.9,454.1 467.5,433.2 467.5,408.8 475.3,389.8 485.4,373.2 498.4,361.2 526.4,355.3 546.6,347.6 574.6,346.4 598.3,348.2 615,357.1 633.4,369 644.7,377.9 650,393.9 666.7,420.7 679.2,447.5 684,470.7 681,485.5 674.5,500.4 669.7,512.9 657.8,513.4 654.2,503.4 645.3,491.5 626.9,470.7 616.2,449.8 596.6,425.5 588.8,404.1 580.5,399.3 575.1,404.6 577.5,417.8 584.7,436.2 601.9,470.1 618,490.9 642.3,512.3 651.3,527.2 671.5,531.3 688.2,508.1 691.7,483.7 694.7,459.3 "/><polygon points="619.1,535.5 636.4,547.3 642.3,558.6 658.4,566.4 675,568.2 680.4,556.9 673.3,548 654.2,545 643,533.7 626.3,518.2 613.8,502.8 605.5,489.1 601.9,494.4 605.5,511.7 611.4,525.3 "/><path d="M593,391l12.5,8.9l8.9,8.9l7.1,10.7l6.5,11.9l8.3,10.7l8.3,13.1l8.3,12.5l4.1,12.4l7.7-1.7l0.6-13.1l-3.6-12.5l-4.1-8.9l-8.3-15.4l-8.3-12.5l-8.9-17.8l-13.1-12.5l-10.7-9.5l-7.7-9.5l-10.7-3l-8.9,7.7c-2.4,5-4.5,8.1-7.2,12.5l3.6,6L593,391z"/><path d="M547.8,891.7l-19-10.1l-21.4-8.9l-27.9-19l-27.9-20.8L433,819.1l-19-17.9l-13.7-19.6l-22-35.1l-11.3-14.4l-14.3-33.9l-9.5-28l-11.3-26.2l-4.8-28l-4.7-26.7l1.2-35.7l1.8-36.9l3.6-34.4l5.3-23.8l1.2-16.7l7.7-20.8l5.3-15.4l6.6-14.3l14.3-6l3,4.8l-0.6,17.8l-3,11.8l-14.3,28l2.4,27.3l-4.2,32.7l3.6,35.1l4.7,25.6l10.1,31.5l7.7,26.2l14.3,29.7l14.8,24.9l15.5,23.8l13.7,23.2l22.6,29.1l27.3,25.6l25,22.6l11.3,13.1l28.6,9.5l20.2,7.2l19.6,6.5l20.8,10.7l13.3,2.2c9.3-6.5,18.8-13.3,28.6-20.5l-24.7-1.3l-23.8-4.8l-24.4-2.9L553,808.3l-25.6-10l-16.1-10.7l-16-14.2L478.1,753l-16-16.6l-20.8-25.6l-11.9-19.7l-10.1-20.8L406.2,646l-14.3-42.2l-9-32.7l-7.7-50.5l-3.6-37.5l6.5-47.6l3.6-29.1l2.4-25.6l9.5-24.3l17.2-32.7l10.7-16.1l21.4-8.3l36.9-20.8l47-13.1l34.5-6.6l42.2,9.5l32.7,8.4l25.6,14.2l21.4,15.5l26.2,36.9l17.9,18.4l17.8,33.9l11.9,41.6l3.6,47l-5.9,32.6l-13.1,31.5L731.4,583l-17.8,26.2l-7.7,27.3l-17.2,11.3l-23.2,3l-29.2-10.7l-24.4-14.9L596.5,608l-11.9-20.2l-15.5-21.4l-12.5-21.5l-11.3-16.7l-13.7-22.5l-5.3-20.3l-4.8-23.7l-4.7-22.6l-3-20.2l3.6-17.3l3-14.9l-1.2-10.1l-13.1,14.3l-7.8,19l4.2,22.6l0.6,30.3l5.3,26.2l8.3,19l12.5,26.2l19,26.2l15.5,26.8l14.9,21.4l17.9,26.1l17.9,17.3l24.9,6.5l11.9,7.8H675l13.1-8.9l19.6-12.5l14.9-20.8l11.3-20.8l13.1-23.1l6-19.7l10.1-26.2l12.5-16.7l1.2-12.5l-3-39.9l-3-27.3l-6.5-26.7l-8.3-22l-14.9-28l-20.2-33.9l-13.7-16l-16-20.8l-17.3-15.4l-22-13.1l-30.9-13.7l-29.2-8.3h-26.2l-25.6,0.6l-30.3,5.9l-23.8,4.8l-25,16l-32.7,17.3l-15.4,10.7l-12.5,14.3L386,332.2l-11.3,15.5l-11.3,12.5l-13.7,22.6l-11.9,9l-1.2,10.7l-14.3,18.5l-6.6,19l-3.5,23.7l-3.6,16.6l0.6,26.8l-7.2,22.6l-1.2,26.2l-0.5,13l2.4,28l1.2,17.8l8.3,19l7.7,26.3l10.7,31.4l3,22l14.9,28.5l22,31l13.1,17.3l7.7,14.8l29.8,25l25,22.6l27.4,20.8l32.1,19l27.3,6.6l15,6.9c5.2-3.2,10.8-6.6,16.7-10.4L547.8,891.7z"/><path d="M588.8,864.9l-31.5-10.1l-21.4-10.1l-19-9.6l-19.6-13.1L480,809l-20.8-23.7l-20.8-22.7L420,738.3l-13.1-22.6L389,690.1l-14.3-32.7l-5.4-17.9l-8.9-11.3l-3-17.8l-9.5-13.6l1.2-17.3l-5.9,1.8l-3,19l6.6,10.1v18.5l6.5,12.5l6.6,18.5l1.8,4.1l8.3,20.8l12.5,24.4l12.5,26.2l17.9,20.8l17.2,24.4l14.3,17.3l14.9,20.2l20.8,15.4l26.7,12.5l19,11.3l24.4,10.2l25.6,11.8l9.4,3.2c6.2-4.1,12.7-8.4,19.4-12.9L588.8,864.9z"/><path d="M42.4,329.2l5.3-7.2l13.1-14.9l14.3-18.4l19-17.2l10.1-10.7l11.9-12.5l29.2-27.3l22.6-14.9l31.5-23.2l25.6-19l58.9-29.1l32.1-17.9l21.4-7.7L358.1,99l18.7-9.5c-9.4-3.1-18.8-5.8-28.3-8.2l-10.6,3.4l-6-3.6l-0.2-3.8c-21.9-4.4-44.1-6.5-66-6.7l-20,6.3l-30.3,14.9l-17.3,13.7l-16.7,7.1l-20.8,12.5l-17.8,10.1l-10.7,17.2l-22.6,17.3l-28,20.8l-14.3,25.5l-1.2,12.5l-11.9,16.7l-19.6,7.8l-15.8,4.3c-0.6,2.6-0.9,5.6-1.5,8.3v9.9l-1.9,0.7c-1.3,7.4-3.1,14.4-3.9,22.2c0,0.1,0,0.2,0,0.3l10.6-12.6l20.2-16.1l20.2-22.6l10.1-4.7l11.9-21.5l23.2-21.4l29.2-22.6l31.5-26.7l26.2-15.5l13.7-13.6l16-5.4l27.4-14.8l30.3-13.1l33.9-11.9l7.2,4.2l-1.2,11.8l-17.8,10.1l-22.6,5.3l-12.5,11.3l-22,8.9L226.6,143l-22.6,4.1l-19.6,22l-35.1,23.8l-10.1,11.9l-12.5,4.1L113.7,225l-12.5,8.9l-13.1,17.2L86.3,263l-19,7.8l-16.6,17.8l-11.3,7.2l-1.2,11.8l-13.7,6.6l-14.2,7c-0.4,11-0.3,21.9,0.3,32.8l0.8-0.6l16.1-22L42.4,329.2z"/><path d="M590,105.6l32.1,3l34.5,11.9l53.5,25l33.3,25.6l24.4,18.4l26.7,22l28.6,22.6l17.2,21.9l19.1,22.6l14.9,19l11.9,16.7l17.8,22l19.6,26.7l16.1,21.4l14.8,31.5l11.3,16.1l6.8,15.1c3.7-12.1,6.9-24.3,9.5-36.7l-0.1-0.4l-14.9-23.2l-25.6-27.3l-23.1-33.9l-22-30.9l-18.4-25l-27.9-25l-15.5-26.7l-23.2-19l-27.9-25.6l-38.1-22l-33.3-24.4l-32.7-19.6L640,93l-13.5-4.7c-14.3,4.6-28.2,10.1-41.7,16.4L590,105.6z"/><path d="M290.9,783.4l-13.7-22.5l-13.6-29.2l-7.1-29.2l-6-20.2l-1.8-26.2l-3.6-23.2l-1.2-35.1l0.6-9.5l-1.8-7.1l-8.9,8.9l0.6,10.7l-1.8,20.8l0.6,20.2v19.6l4.1,32.7l3.6,18.4l4.2,30.3l7.1,13.7l4.2,6.3c14,12.2,28.1,23.9,41.9,35L290.9,783.4z"/><path d="M65,184.6l30.3-25.5l22-18.4l24.3-22.6l14.9-14.3l3-10.1l8.3,1.2l24.4-13.6l10.2-4.9c-31.9,6.4-62,18.2-88.6,36l-4.2,11.1L96,140.7l-24.9,10c-0.1,0.1-0.1,0.2-0.2,0.3l-9.4,16.4l-8.1,5.9c-5,7.7-9.4,16.3-13.6,24.9l8,3.7L65,184.6z"/><path d="M856.4,628.2l-6.5,21.4l-5.7,13.8c8-9.1,15.9-18.4,23.5-27.9v-0.1l4.8-25l0.6-18.5l-3-17.8l-1.8-21.4l-1.2-22l-3-11.3l-6.6-0.6l-2.4,14.3l2.4,18.5l0.6,25.6l-0.6,27.3L856.4,628.2z"/><path d="M538.3,134.1l34.5,4.2l48.2,13.1l33.9,13.1l27.9,13l34.5,18.4l48.7,34.5l21.4,18.4l26.8,25l15.5,18.4l16.1,17.8l19.6,32.7l21.4,29.2l13.6,24.3l13.7,17.8l10.1,25.6l13,29.1l10.1,23.8v18.5c6.3-13.3,12.1-26.8,17.1-40.4l-7-14.3l-10.7-23.8l-20.8-28L911.1,382l-13.7-26.2L879.5,332l-19.6-19l-14.2-34.5l-20.2-18.4l-20.8-18.4l-19-22l-23.8-16.1l-24.9-17.8l-36.9-19l-26.2-19l-30.3-11.9l-26.2-4.7l-35.1-11.3l-22.8-2.6c-9.1,5.1-17.9,10.5-26.4,16.2L538.3,134.1z"/><path d="M410.4,174l-36.2,8.9l-11.3,14.3l-17.2,15.4l-27.3,15.5l-19.6,8.9l-21.4,10.7l-9.5,13.6l-8.3,14.9l-8.9,16l-18.4,19.6l-12.5,17.9L194,355.9l-14.9,19l-16,11.3l-22.6,14.9l-11.3,13.1l-16,14.9L103,449.2l-15.4,23.2l-16,22l-14.3,23.8l-0.8,0.9c3.7,7.3,7.6,14.4,11.6,21.6l9.5-18.9L90,500.4l14.3-29.7l16.7-25.6l19.6-25l13.1-17.8l11.3-8.3l6.6,2.3l1.2,10.1L161.3,419l-10.1,14.3l-7.7,13.7l-8.9,16l-10.7,20.8l-14.3,26.8l-11.3,17.8l-13.6,14.9l-7.6,13.2c3.8,6.3,7.5,12.6,11.5,18.8l1.4-4l20.2-30.3l10.7-22l10.7-18.5l15.5-19.6l11.9-3l8.3,3L166,488l-8.9,10.7l-9.5,13l-5.4,10.2l-7.7,13.6l-11.9,14.9L122,564l-6.5,10.1l-9.5,20.2l-2.6,2.7c2.5,3.6,5,7.2,7.6,10.7l7.5-8l9.5-5.9l8.3-18.5l6-14.8l6-19.6l6.6-17.9l16.7-25l14.3-16l16.7-16.7l5.3-15.4l0.6-14.9l15.5-23.7l11.9-18.4l10.7-14.9l11.3-20.3l14.9-16.7l23.2-24.3l23.1-17.8l14.9-12.5l12.5-7.7l10.7-10.7l29.7-23.8l20.8-14.2l19-10.1l19-7.8L474,206l22-11.3l26.7-6.6l20.8-0.6l38.6-3l22,4.2h9.5l18.5,6l19,4.1l23.2,8.3l24.4,13.1l18.4,15.5l21.4,14.3l16.1,16.7l15.5,12.5l17.3,11.8l20.2,26.8l15.5,18.4l7.7,15.5l12.5,17.2l11.3,22l7.7,11.3l13.7,16.7l7.7,9.5l3.6,17.8l6.6,8.9l8.9,5.9l2.4,20.8l1.8,13l11.9,25.7v23.2l2.3,15.7c4.3-7,8.3-14.1,12.3-21.3l-5.7-41.5l-6-17.8l-6.5-18.5l-10.7-22L895,413l-7.1-10.7L874.3,382l-16.7-15.4l-8.9-22.6l-18.4-16.1l-11.9-19.6l-14.9-19.1l-25-22l-14.8-11.9l-23.8-21.4L725,223.9l-22-16l-7.1-10.1l-21.4-8.3l-20.2-7.1l-20.2-4.1l-26.2-10.7l-14.3-1.8l-29.1,1.2l-32.7,7.1l-38,3.5l-39.8,13.1l-29.7,10.7L379,224l-17.3,13.7l-13.6,9.5l-13.7,15.5l-25.6,17.2L288,300.1L271.4,318l-18.4,23.7l-22,20.2l-6.6,12.5L207.7,400l-11.9,33.9l-13.7,31.5l-15.4,7.1l-11.3-2.9l7.1-16.7l6.5-17.2l8.3-16.1l8.9-17.2l4.1-13.1l5.4-13.1l17.2-17.3l6.5-14.8l19.6-19.1l21.4-24.4l13.7-11.3l21.4-17.8l13.1-14.3l22-11.9l16.7-14.3l21.4-18.4l29.1-17.8l21.4-6.6l21.4-7.1l22.6-7.1l21.4-6l25.6-3.6h14.8l17.9-2.4l7.7-8.3l-10.7-7.1h-24.2c-5.3,4.2-10.9,8.1-15.9,12.6c-4-3.6-8.6-6.8-12.8-10.1l-10.8,1.2L441.4,164L410.4,174z"/><path d="M840.3,419.5l-3-21.4l-4.1-8.3l-12.5-19l-11.9-28.6l-16.1-22l-12.5-10.7l-7.8-4.1l-2.4,7.2l14.9,19.6l13,22.6l9.5,20.8l14.8,33.3l4.8,23.8l4.1,43.4l-3.5,27.4l-3,37.5l3,44l-8.3,33.2l-20.8,67.3l-9.5,20.8l-22,24.9l-19,19l-17.2,16l-24.4,15.5L681,793.5l-29.7-0.6l-28.6-5.4l-23.2-1.8l-35.7-13l-23.2-17.2L524,739.5l-17.8-25.6l-11.9-19.1l-22-23.7l-16.1-24.4L446.2,611l-11.3-33.9l-4.7-38.1l-0.6-36.9l-1.8-26.7l-2.4-22L423,435l3-32.7l7.1-22.6l11.3-25.5l25.6-25.6l26.8-12.5l29.1-8.3l31.5-8.3l33.3,4.8l31.5,10.1l30.9,19.6l20.2,22l13.7,18.4l16.1,30.9L712,438l5.4,25l-3.6,28.6l-2.4,25.6L700.7,532l-8.3,12.5l4.1,10.1l15.4-12.4l13.6-13.1l5.4-30.9l4.7-26.8l1.8-20.2l-4.1-19l-6-20.3l-6-19l-16-23.8l-13.7-19l-10.7-15.5l-22.6-16L644.2,306L628.8,296l-24.4-7.8l-26.8-7.7l-35.7,0.6l-26.2,4.7l-36.9,18.5l-19.6,10.1l-7.7,12.4l-17.9,12.5l-12.5,17.9l-9.5,17.2l-5.4,21.4l-1.8,21.4v25.6l1.8,25l-1.2,19.6l-1.8,21.4l1.2,30.9l1.2,9.5l5.3,32.2l10.1,32.1l15.4,34.4l9.5,20.8l22.6,31.5l20.2,21.5l15.5,18.4l17.2,23.2l21.4,20.2l19,10.7l35.7,12.5l27.9,6.6l38.1-1.2l18.4-3.6l9-2.1c36.4-28.5,74.4-61.2,110.7-97.6l11.7-17.4l9.5-23.2l7.7-27.4l6-23.7l6-33.3l-3-27.4l6.6-37.4l-1.8-23.2l7.2-29.7l-8.9-19L840.3,419.5z"/><path d="M41.8,231l4.7-7.7l-7.7-13.1l-5.7,1.9c-3.5,8.3-6.3,17.3-9.1,26.4L41.8,231z"/><path d="M44.2,374.9l36.3-35.7l16-17.2l31.5-33.9l24.3-20.2l23.2-23.2l26.7-19l29.7-8.9l15.5-9l19-14.8l26.8-22l35.7-14.3l30.3-18.4l39.8-22l24.8-7.4c-9.6-4.7-19.3-9.2-29.4-13.1l-1.3,0.3l-25,16.1l-23.8,13.7l-42.8,19.6l-24.4,15.5L244,178.7l-18.4,12.5l-25,10.7l-26.2,21.4L153,234.7l-19.6,19.6l-13.7,21.4l-21.4,16.1l-16.7,15.4l-17.2,18.4l-16.6,22.6l-22.6,13.1l-13,12c1.1,9.7,2.4,19.4,4.2,29l0.5-0.5L44.2,374.9z"/><path d="M903.9,539.6l-3.6-19l-9.5-18.5l-3-17.2l-8.3-22l-5.3-16l-8.3-22.6l-6.5-1.8v17.8l2.3,23.8l4.2,12.5l5.4,18.4l9.5,25l6.5,17.2l2.4,17.9l-1.2,23.2l-0.9,31.4c7-9.5,13.7-19.1,20.2-28.9l-2.7-19.1L903.9,539.6z"/><path d="M205.9,237.6l-13.1,19.6l-28.5,23.2l-11.9,7.1l-6.5,17.3l-16.1,10.1l-19,13.6l-6.5,17.8l-11.9,1.8l-16,16.7l-10.7,20.3l-18.4,14.8l-14.9,17.8l-9.5,11.3l-0.5,0.4c2,7.8,4.5,15.6,7,23.3l13.7-16l14.8-23.7L71,397.6L96.5,369l26.2-25l30.3-26.2l18.5-19.1l19-23.7l15.4-13.1l15.5-18.5l6.5-13.6l-5.9-1.8L205.9,237.6z"/><path d="M774.7,72.8l4.5,4.2l14.9,4.2l31.5,15.4l13.7,4.2l26.2,18.4l28.6,14.9l17.9,16.1l31.5,22.6l6.2,5.5C909.8,114,845.4,81.1,774.7,72.8z"/><path d="M743.4,94.3l19,1.8l22,21.4l15.5,4.2l26.8,19.6l13.1,4.1l25.6,17.8l29.7,19.6l25.6,20.3l33.3,27.9l9.5,17.3l17.9,13.7l0.9,0.8c-3.2-14.9-7.3-28.9-12.2-41.9l-26.2-29.6l-22.6-13.7l-18.4-6l-3-10.7l-33.9-21.4l-20.8-11.9l-28.5-18.4l-45.2-19.6l-19-9.6l-15.4-1.2l-12.5,3l-14.7-10.3c-16.5,1.3-33,4.2-49.3,7.8l41.4,19.8l21.4,19l40.4,21.4l23.2,18.4l22,19l24.4,16.1l30.9,10.1l25,16l32.1,27.3l20.8,19.6l36.9,44l11.1,17.1c-0.2-9.5-0.6-18.9-1.6-28.5c-0.4-3.4-1.3-6.3-1.7-9.7l-12-13.3l-8.9-16L944.4,243l-19.6-16.7l-23.2-19.1l-20.3-19.6l-15.5-5.3l-40.4-20.8l-11.8-1.2l-14.3-17.2l-28.6-17.3l-14.9-8.4l-14.3-8.9l-16.6-10.1l-3.5-9.5l5.6-1.8L743.4,94.3z"/><path d="M934.3,285.1l-20.2-18.4L898.6,250l-17.3-11.3l-16.6-17.3l-18.4-7.1l1.8,7.8l16.7,20.2l16.6,16.1l15.5,16.7l16,14.2l20.8,23.3l13.7,16.7l14.9,18.4l20.2,26.1l4.5,7.2c1.2-9.2,2.1-18.4,2.6-27.7l-19.5-26.5L934.3,285.1z"/><path d="M178.5,653.2l-1.8-17.8l-4.7-3l-4.1,23.2l-1.7,19.4c4.1,4.5,8.3,9,12.5,13.4l-0.7-7.2L178.5,653.2z"/><path d="M391.4,147.2l-30.9,14.3l-27.9,14.9l-22,5.9L297.5,199l-29.1,11.9l-28,31.5l-17.2,25L205.9,278l-26.2,38.1L156,339.8l-39.2,30.3l-16.7,26.2l-19.6,16.1l-13.1,27.9L49,462.9l-11.4,13.2c2.8,7.2,5.7,14.4,8.8,21.4l8.5-11.4l23.2-38.1l12.5-17.3l11.9-8.9l32.7-34.4l23.8-26.2l27.9-28.6l18.4-20.1l41-44.1l16.7-23.2l16.1-8.9l19-15.5l26.2-16.7l29.7-17.8l17.8-11.3l42.8-16l33.3-17.3l26.9-2.7c-7.6-5.5-15.6-10.5-23.7-15.4l-20.4,8.6l-23.8,2.4L391.4,147.2z"/><path d="M750.6,293.5l-22.6-20.2L709.5,253l-22.6-11.3l-25.6-14.9L629.8,212l-33.9-12.5l-45.8,0.7l-30.9,6.5l-25.6,6.6l-34.5,13.1L428.8,237l-22.6,16.6l-36.3,31.5l-8.9,13.7l-12.5,17.3l-11.9,25.6l-8.9,22l-17.2,18.4l-16.6,20.2l-5.3,15.5L277.2,435v10.1l-3.5,14.3l-7.7,19l-7.7,17.8l0.6,21.4l-6.5,14.9l-1.2,15.5l5.3,18.5l5.3,12.4l3.6,16.1l-0.6,14.9l2.4,15.5l2.4,19.6l3,19.1l5.3,19.6l4.2,14.9l10.1,25.6l7.7,25.6l20.2,26.7l11.9,23.2l13.7,15.5l23.8,28l18.7,21.4c19.8,13.6,38,25.3,53.7,35l3.1-4.1l11.3,3.5l13.7,10.1l11.3,8.9l20.3,8.3l6.2,3.2c4.4-2.4,10.6-6,18.3-10.5l-18.7-5.2L490.2,903l-22.6-16.1l-27.4-2.3l-10.1-8.4l-15.5-14.8l-20.8-17.3L379,827.4l-22.6-27.3l-14.3-20.8l-7.7-16l-17.8-22l-9.5-22l-5.3-19l-6.6-19.6l-4.7-26.8l-7.2-43.4l-6-26.8l-3.5-28.5v-22.6l10.7-52.3l5.3-29.7l16.6-38.1l18.5-21.4l14.3-22.6l16.7-29.2l24.3-30.9l15.5-21.5l28.6-17.8l15.4-18.4l27.9-10.1l24.4-7.8l30.9-5.3l29.2-6.5l29.7-1.8l21.4,4.1l25,7.7l17.3,6l18.5,10.1l20.2,10.1l20.2,14.3l32.7,32.7l10.7,20.2l13.1,30.3l13.7,22l11.3,29.2l7.7,26.7l2.4,31.5l1.8,29.7l-1.2,34.4l0.6,28l-6.6,36.9l-4.1,31.5L774.9,664l-16.6,16.1l-12.5,18.4L728,722.3l-13.7,11.3l-23.2,16.1l-20.9,4.7l-22.6-1.2l-24.4-0.6l-16.1-4.8l-13.7-9.5l-13-9.6l-10.7-7.1l-13-10.1l-11.3-13.6l-9-11.9l-11.9-10.7l-10.1-16l-9.5-11.3l-11.9-21.4L470.6,592l-8.9-23.2l-7.7-9.5l-2.4,16l6.5,20.8l9.5,22l16.1,26.7l24.4,33.3l15.4,16.7l15.5,21.5l22.6,30.9l35.7,11.3l30.9,10.7l30.9,0.6l28-1.1l19-11.9l14.9-13.7l12.5-10.1l13.6-16.7l22-21.5l7.7-19.6l11.9-20.8l7.7-22.6l5.4-26.2l4.7-22l5.3-39.2l-2.3-29.2l5.3-14.2l-1.8-14.9l-1.8-36.9l-6.5-22.6l-4.7-18.4l-13.6-19.7l-13.7-39.3l-9.5-24.3L750.6,293.5z"/><path d="M321.8,310.1l-20.2,23.3l-14.9,19.6l-10.7,10.7l-8.3,16l-16.1,20.8l-15.5,23.2l-5.9,19l-11.9,26.8l-4.2,26.2l-1.2,13.7l-3,22.6l-4.2,20.8l-8.9,28l-1.8,28l-0.6,11.3v19l1.8,29.7L197,696l0.7,12.2c8.2,8.2,16.5,16.2,24.9,24.1l-6-17.9l-1.8-28.5l-1.2-19.6l-1.8-22l3.6-41l4.1-30.9l4.7-18.4l1.2-12.5l1.8-25.6l5.4-24.3l10.1-18.4l7.1-24.3l10.1-20.3l13.1-28.5l20.8-26.2l16.6-17.8l10.7-17.2l14.9-25l-1.2-9.6L321.8,310.1z"/><path d="M123.8,610.4l-0.6,11.3l-0.5,1.5c2.2,2.8,4.3,5.7,6.4,8.4v-13.6l-1.8-8.3L123.8,610.4z"/><path d="M183.9,512.9l-15.5,35.7l-8.3,22l-6.5,19.6l-7.2,23.2l-1.2,19.6l-4.7,12.4c3.7,4.4,7.2,8.9,11,13.2l0.8-11.4v-12.5l6.6-13.6l4.2-13.1l4.1-13.1l5.3-9.4l5.3-18.5l3-18.4l6-17.3l4.7-18.4l0.6-7.7l-3.6-1.8L183.9,512.9z"/></g></g><g></g><g></g><g></g><g></g><g></g><g></g><g></g><g></g><g></g><g></g><g></g><g></g><g></g><g></g><g></g></g>
</svg>